<?xml version="1.0" encoding="UTF-8"?>
<svg id="Layer_2" data-name="Layer 2" xmlns="http://www.w3.org/2000/svg" viewBox="0 0 93.26 69.95">
  <defs>
    <style>
      .cls-1 {
        fill: #fff;
      }
    </style>
  </defs>
  <g id="Layer_1-2" data-name="Layer 1">
    <g>
      <g>
        <polygon class="cls-1" points="33.41 30.07 55.83 23.1 52.29 17.74 55.99 15.34 62.84 25.49 20.99 38.46 33.41 30.07"/>
        <path class="cls-1" d="M44.37,6.26l-8.54,15.37c-2.4,1.66-4.68,3.25-7.72,4.78L41.79,1.54c.52-.66,1.44-1.4,2.12-1.52.62-.12,2.03.42,2.39.96l6.45,9.57-3.63,2.45-4.76-6.73Z"/>
      </g>
      <g>
        <path class="cls-1" d="M5.96,58.02c6-2.46,13.46-2.12,13.13-5.78-.15-1.6-2.38-1.94-3.8-1.81s-2.58,1.08-3.45,2.7l-8.92,2.27c1.13-9.59,10.87-12.49,19.72-10.4,3.51,1.04,5.55,4.3,5.08,8.15-.68,5.61-1.75,11.06-2.77,16.79H.7c-1.97-4.68.32-9.88,5.26-11.91ZM11.99,66.3c3.94-.15,5.84-2.77,5.81-6.67l-6.92,1.86c-1.03.28-1.99,2.04-1.86,2.92.2,1.35,1.5,1.94,2.97,1.88Z"/>
        <path class="cls-1" d="M39.13,53.41c-2.9,4.96-3.34,12.67,1.47,12.88,3.06.14,5.06-1.94,5.57-5.07h8.77c-.73,3.61-2.49,6.61-5.28,8.72l-18.61-.02c-3.12-3.28-3.43-7.69-2.56-11.98,1.97-9.68,10.99-15.64,20.57-12.98,4.76,1.32,7.45,5.83,6.74,10.66h-8.63c.05-1.19,0-3.09-.48-3.91-2.43-2.07-6-1.01-7.58,1.68Z"/>
        <g>
          <path class="cls-1" d="M69.06,66.25c2.45.14,4.62-.67,5.56-3.07l8.82.03c-.93,2.56-2.44,4.64-4.61,6.73h-19.48c-2.8-3.13-3.31-6.85-2.76-10.79,1.41-10.11,10.73-16.89,20.65-14.21,6.73,1.82,8.18,9.26,6.86,16.29h-18.92c-.58,2.68,1.12,4.88,3.89,5.03ZM76.17,55.62c.16-1.72-.13-3.34-1.19-4.08-1.65-1.16-3.84-1.07-5.69-.28-1.5.64-2.7,2.39-3.23,4.36h10.11Z"/>
          <path class="cls-1" d="M92.39,69.95l-8.65-.03c-.26-2.15.5-4.02,1.97-5.29s3.74-1.75,5.54-.83c2.31,1.18,2.54,4.19,1.14,6.15Z"/>
        </g>
      </g>
    </g>
  </g>
</svg>