<?xml version="1.0" encoding="UTF-8"?>
<svg id="Layer_2" data-name="Layer 2" xmlns="http://www.w3.org/2000/svg" viewBox="0 0 92.85 12.57">
  <defs>
    <style>
      .cls-1 {
        fill: #fff;
      }
    </style>
  </defs>
  <g id="Layer_1-2" data-name="Layer 1">
    <g>
      <path class="cls-1" d="M57.39,10.52L58.41.1l1.81-.03-1.42,12.49h-3.15s-.95-7.26-.95-7.26l-.34-.32c-.08-.07-.27.26-.3.35l-.93,7.21h-3.18S48.52.01,48.52.01l1.84.02.47,4.73.55,5.81c.08.08.24.29.31.25l.32-.24.94-7.3h2.88s.93,7.25.93,7.25l.26.32c.07.09.33-.21.37-.32Z"/>
      <path class="cls-1" d="M25.21,7.09h-6.39s0,3.42,0,3.42c0,.19.46.47.63.49h6.38c.01.57,0,1.09-.1,1.57h-8.77s0-12.56,0-12.56h8.83c.08.57.07,1.07,0,1.73l-6.91.02-.06,3.72,6.41.04v1.56Z"/>
      <path class="cls-1" d="M9.46,12.54h-1.86s-.05-5.41-.05-5.41l-4.95-.05c-.25,0-.8.28-.83.5v4.98s-1.78-.05-1.78-.05V.05S1.78,0,1.78,0v4.96c0,.24.5.45.77.45l5.02-.03.02-5.34h1.87s0,12.5,0,12.5Z"/>
      <path class="cls-1" d="M75.33,10.98v1.59s-8.77,0-8.77,0c-.09-.49-.1-.95-.07-1.55l2.77-.03c.22,0,.64-.28.76-.47V2.27c-.05-.27-.32-.51-.55-.51l-2.98-.03-.03-1.72h8.84s.03,1.72.03,1.72h-2.84c-.3,0-.72.34-.72.7v7.96c0,.27.63.62.9.61l2.66-.02Z"/>
      <path class="cls-1" d="M88.33,12.54l-1.76.02V2.4c.03-.16-.28-.65-.46-.65l-4.05-.02V.04s10.77,0,10.77,0v1.71s-3.78,0-3.78,0c-.33,0-.72.31-.72.68v10.11Z"/>
      <path class="cls-1" d="M36.03,10.86h6.48s-.01,1.71-.01,1.71h-8.7s0-12.5,0-12.5l1.75-.02v10.16c0,.19.31.59.49.65Z"/>
    </g>
  </g>
</svg>