<?xml version="1.0" encoding="UTF-8"?>
<svg id="Layer_2" data-name="Layer 2" xmlns="http://www.w3.org/2000/svg" viewBox="0 0 93.89 19.81">
  <defs>
    <style>
      .cls-1 {
        fill: #fff;
      }
    </style>
  </defs>
  <g id="Layer_1-2" data-name="Layer 1">
    <path class="cls-1" d="M85.67,19.81c-5.94-.07-8.89-4.02-9.12-9.92-.64.98-1.44,1.81-2.52,2.52l3.71,7.14-5.44.04-3.16-6.35-1.75.03v6.32s-18.11,0-18.11,0l-.09-2.61c-1.03,1.46-2.86,2.59-4.91,2.59l-22.56.03-.08-5.15c-1.33,3.48-4.25,5.33-7.88,5.37-4.17.05-7.44-2.21-8.7-6.54l-.09,6.31H0s0-19.34,0-19.34l4.97-.02.07,6.55C6.12,2.32,9.73-.24,14.23.02c3.47.2,6.27,1.96,7.4,5.35l.09-5.14,22.22.05c2.48,0,4.51,1.45,5.23,3.52l.09-3.57,22.24.11c3.13.02,5.14,2.56,5.7,5.62C78.61,1.93,82.07-.19,86.15.03c3.73.2,6.99,2.41,7.54,6.57l-5.02.06c-.56-1.65-1.85-2.22-3.41-2.08-3.26.3-4.17,4.62-3.05,8.16.59,1.88,2.2,2.7,4.07,2.49,1.54-.17,2.78-1.03,2.76-2.71h-3.33s0-3.76,0-3.76h8.16s-.1,3.98-.1,3.98c-.11,4.42-3.91,7.12-8.11,7.07ZM26.68,12.02v3.34s8.2-.05,8.2-.05l-.03-10.83h-8.17s0,3.3,0,3.3h7.6s-.04,4.25-.04,4.25h-7.57ZM42.59,7.98c1.04-.07,1.63-1.18,1.54-2.04-.07-.59-.86-1.51-1.56-1.53l-2.69-.07v3.82s2.71-.18,2.71-.18ZM54.2,12.03l.03,3.34,8.16-.03V4.48s-8.15,0-8.15,0l-.05,3.28,7.62.05-.04,4.23h-7.56ZM71.02,8.61c1.39-.84,1.14-3.21-.19-3.78-1.07-.46-2.34-.43-3.45-.38l.02,4.62c1.23.06,2.61.15,3.63-.46ZM16.89,12.57l4.81.03v-5.08s-4.83-.03-4.83-.03c-.11-1.85-1.41-2.94-3.1-2.93-1.57,0-2.83.83-3.37,2.33-.69,1.91-.68,4.13-.02,6.05.53,1.52,1.81,2.32,3.38,2.31s2.86-.88,3.12-2.68ZM49.2,11.17v-4.88c-.58,1.5-1.74,2.54-3.49,3.15,1.32.16,2.23.62,3.49,1.73ZM42.71,15.33c1.3-.03,2.01-.95,1.97-2.06s-.87-1.92-2.14-1.93l-2.66-.02v4.07s2.83-.06,2.83-.06Z"/>
  </g>
</svg>