<?xml version="1.0" encoding="UTF-8"?>
<svg id="Layer_2" data-name="Layer 2" xmlns="http://www.w3.org/2000/svg" viewBox="0 0 93.92 44.31">
  <defs>
    <style>
      .cls-1 {
        fill: #fff;
      }
    </style>
  </defs>
  <g id="Layer_1-2" data-name="Layer 1">
    <g>
      <path class="cls-1" d="M55.93,3.66l.51.86c.07.12.12.13.21.05l.68-.6.85,1.24c.22.32.88.02,1.64-.35.38.65,1.4,2.3,1.61,3.16.2,1.71-.1,3.84-.38,5.52-.61,3.66-.75,7.1-1.02,10.73l-.42,5.42,5.57-.7,3.18,1.76.82.75c.19.18,1.13-.28,1.04-.33-.51-.53-1.14-1.51-1.01-2.04l1.29-5.33-1.55-1.32.53-.71c.14-.18-.59-.46-1.05-.72.62-.55,1.57-.65,3.07-.48l1.7-7.52,1.13-4.93.72-4.63c.11-.69.64-1.81,1.03-2.33l.73.54c.13.1.48-.3.76-.57l1.14,1.64c.13.04,1.04-.37,1.02-.67l-.11-1.29c-.03-.37.78-.83.78-.82l.36,1.11.88-.86.66.98c-.05-.07,3.79-.44,4.77,5.2,1.06,6.07,3.06,11.53,4.76,17.38l2.1,7.25c-3.79-.47-7.03-2.53-7.78-6.37l-8.76,1.11-1.22,5.64c-.13.6-.44,1.65-.83,2.09-.33.37-1.31.73-1.76.51l-4.22-2.07.39,1.8c-4.28.72-8.67,1.75-13.26,1.92-1.49.06-6.28-2.59-5.33-4.77l1.36-.72c.29-.16.26-1.12.29-1.52l.77-10.96,1.21-11.34c.11-1.07.5-2.08,1.14-2.71ZM84.36,19.29l-2.95-9.91-2.53,10.72,5.48-.81Z"/>
      <path class="cls-1" d="M10.23,30.39l-1.93.05-.54-.86c-.13-.21-.8.47-.8.83l-.08,9.05c-.01,1.6-.15,2.99-.36,4.2-.42-1.06-.78-1.09-.71.02-.2.32-1.04.76-1.34.61l-1.4-.7c-2.42-1.21-3.34-2.94-2.98-5.68s.1-5.39.18-8.02c.16-5.91.38-11.27.12-17.39.4-.11,1.8-.26,2.47-.28l.47,1.31c.09.24.54-.27.97-.76l2.69,2.25.32,9.85,8.23-13.94c.03-.1.39-1.01.51-.87l.57.66c.41-.28,1.11-.66,1.37-.46.42.31.54.67.61,1.33l1.23-.83,1.49,2.06c.3.41.53,1.67.27,2.17-.24.44-.87.81-1.6,1.2l-3.89,6.28c-.07.12.21.98.07,1.04l-.71.27-1.49,2.31c.46.49,1.35,1.47,1.55,2.03,1.32,3.67,2.82,6.92,4.85,10.19.83,1.33,1.4,2.76,1.47,4.03-3.82-.26-6.22-2.44-7.86-5.33l-3.75-6.61Z"/>
      <path class="cls-1" d="M45.89,31.88c2.07-.2,5.69,1.18,5.81,3.23.02.3.34.86.59,1.3-4.51.79-8.79,1.8-13.44,1.95-1.65.05-5.98-2.66-5.43-4.56.1-.35.87-.57,1.64-.79l.61-8.42c.36-4.96.86-9.64,1.5-14.6.18-1.42.11-3.25,1.55-3.53-.3,1.04-.01,1.48.7.37l1.4,1.48,1.16-.6c.18-.09,2.31,2.01,1.95,5.12-.39,3.4-1.05,6.74-1.26,10.08l-.57,9.32,3.77-.37Z"/>
      <path class="cls-1" d="M29.46,27.93c-.71,4.08-1.26,7.24-.69,11.49-.61,1.79-5.76-.64-6.23-2-1.46-4.17-.37-8.19.24-12.33.73-4.95,1.17-9.63,1.63-14.73.07-.77.7-1.46,1.27-1.7l.07.81c.01.12.35.32.41.22l.48-.8.89,1.14c.23.3.98.13,1.78,0l1.84,2.86c-.54,4.99-.79,9.89-1.69,15.04Z"/>
    </g>
  </g>
</svg>