<?xml version="1.0" encoding="UTF-8"?>
<svg id="Layer_2" data-name="Layer 2" xmlns="http://www.w3.org/2000/svg" viewBox="0 0 94.28 25.53">
  <defs>
    <style>
      .cls-1 {
        fill: #fff;
      }
    </style>
  </defs>
  <g id="Layer_1-2" data-name="Layer 1">
    <g>
      <polygon class="cls-1" points="85.12 22.39 80.47 19.6 75.89 22.4 66.69 16.81 66.69 5.59 75.84 0 80.49 2.77 85.07 0 94.24 5.55 94.28 16.78 85.12 22.39"/>
      <polygon class="cls-1" points="10.77 14.85 8.29 14.89 2.94 6.39 2.82 14.88 0 14.89 0 .36 2.66 .29 7.92 8.65 7.99 .36 10.78 .3 10.77 14.85"/>
      <path class="cls-1" d="M31.86,14.95l-2.34-4.44c-.26-.49-1.67-.51-1.96-.16l-.02,4.57-2.92-.04V.31s5.89.02,5.89.02c2.52,0,4.23,2.13,4.3,4.45.06,2.04-.64,3.73-2.57,4.73l2.89,5.36-3.27.07ZM30.94,7.13c.64-.18,1.06-1.6.98-2.17-.07-.51-.59-1.64-1.13-1.69l-3.24-.27v4.45c1.22,0,2.17.03,3.39-.31Z"/>
      <path class="cls-1" d="M46.76,7.44c.03,3.34-1.51,6.5-4.78,7.21-2.02.44-4.29.23-6.35.21V.35c1.98-.05,4.13-.21,6.1.13,3.27.57,5.01,3.62,5.04,6.95ZM43.07,10.58c1.05-1.93.94-4.47-.26-6.16-.93-1.32-2.63-1.47-4.29-1.17v8.87c1.58.45,3.61.2,4.55-1.53Z"/>
      <path class="cls-1" d="M23,11.82c-1.12,2.28-3.26,3.4-5.48,3.35s-4.41-1.34-5.38-3.65c-1.1-2.62-1.07-5.73.23-8.24C13.49,1.12,15.55-.02,17.81.04s4.2,1.27,5.24,3.46c1.2,2.54,1.25,5.67-.05,8.33ZM20.31,4.64c-.45-.99-1.55-1.75-2.51-1.79s-2.21.6-2.71,1.55c-1.05,2-1.04,4.39.01,6.38.51.97,1.7,1.59,2.69,1.55,2.74-.11,4.04-4.35,2.51-7.69Z"/>
      <path class="cls-1" d="M55.5,11.29c1.37,1.76,3.74,1.08,4.91-.55l1.8,2.2c-1.52,1.81-3.64,2.5-6,2.08-1.85-.33-3.64-1.87-4.34-4.03-1.4-4.33,0-9.64,4.18-10.71,2.32-.59,4.53.02,6.09,1.75l-1.75,2.41c-1.19-1.44-3.45-2.14-4.79-.59-1.68,1.95-1.76,5.29-.09,7.43Z"/>
      <rect class="cls-1" x="47.33" y=".29" width="2.89" height="14.66"/>
      <path class="cls-1" d="M49.9,25.44c-.86,0-.93-3.17-2.75-2.84l-.04,2.88h-1.73s0-8.81,0-8.81l3.93.11c1.17.03,2.06,1.4,2.16,2.28.16,1.41-.26,2.46-1.53,3.24l1.69,3.13h-1.73ZM49.35,18.76c-.66-.22-1.53-.32-2.23-.39l.07,2.77c1.1-.15,1.72-.25,2.19-.44.43-.18.41-1.79-.03-1.93Z"/>
      <path class="cls-1" d="M37.66,22.66l-.11,2.67-1.71.12v-8.78s3.42.11,3.42.11c1.81.06,2.61,2.05,2.31,3.51-.34,1.65-1.45,2.85-3.91,2.37ZM37.63,20.85c.01.51,1.72.27,2-.17s.3-1.4-.03-1.93c-.27-.44-1.45-.52-2.02-.29l.06,2.4Z"/>
      <path class="cls-1" d="M33.01,25.4c-1.59.37-2.89-.11-4.11-1.14l1.19-1.36c.84.98,2.38,1.51,2.95.29-.05-1.61-3.47-1.28-3.74-3.55-.15-1.23.38-2.44,1.65-2.88,1.1-.38,2.61-.02,3.52.76.14.46-.54,1.39-.98,1.37-.7-.63-2.11-1-2.48.06.38,1.53,3.71,1.4,3.79,3.85.03,1.04-.72,2.35-1.79,2.6Z"/>
      <polygon class="cls-1" points="58.92 25.42 57.19 25.41 57.18 18.38 55.05 18.35 55.06 16.69 60.98 16.72 61.04 18.33 58.94 18.39 58.92 25.42"/>
      <rect class="cls-1" x="49.06" y="20.21" width="8.78" height="1.74" transform="translate(32.35 74.52) rotate(-89.98)"/>
      <rect class="cls-1" x="42.32" y="16.69" width="1.73" height="8.75"/>
    </g>
  </g>
</svg>