<?xml version="1.0" encoding="UTF-8"?>
<svg id="Layer_2" data-name="Layer 2" xmlns="http://www.w3.org/2000/svg" viewBox="0 0 94.36 58.9">
  <defs>
    <style>
      .cls-1 {
        fill: #fff;
      }
    </style>
  </defs>
  <g id="Layer_1-2" data-name="Layer 1">
    <path class="cls-1" d="M4.14,54.97l-3.6-1.58.47-3.07c-.94-1-1.07-2-.77-3.28.35-1.51.34-2.95.5-4.46.27-2.68,1.29-7.22,1.08-7.25l1.02.15.68-3.69-.35-.21-.6,1.32c-.44-1.83-.87-2.79-2.24-3.89-.32-.91-.39-2.85-.27-3.82l5.15-2.51-1.27-1.11c-.28-.24-.3-1.27-.2-1.59l3.3.34c.45.05.81,1.18.83,1.73l.81-1.09c.19-.26.96.77,1.05,1.03,2.03-.22,4.02-.09,6.09.51,2.65-.93,5.12,0,6.45,2.86l1.34-3.35c.17-.3,1.38.1,1.7.29,4.44-2.37,4.39.03,7.34-.08l3.16,13.36c1.04-3.4,1.97-6.46,2.36-9.9l.5-4.31c.22-1.92.38-3.43.13-5.43,3.81-2.69,4.27-.04,6.84-.63l3.3.07,1.52-.58c.37-.14,1,.46,1.2.96,3.1,1.17,5.22,3.27,7.05,6.61l.93-7.97c.83,1.18.42,2.18.27,3.37l-.1.84c-.02.15.47.15.71.15l.68-9.05c.1-1.36.17-3.34,2.02-3.77.61-.14,1.18,1.52,1.01,2.31l2.25-.77-1.86,21.16c2.3-.67,4.79-1.23,7.1-1.58l-2.55-4.51c-.53-.95-.89-1.73-.92-2.78-.05-1.31-.36-3.2.08-4.38,1.32-3.48,3.26-6.27,5.59-9.07l-.56,2.03,4.62-5.2-.97-1.19c5.18-2.52,10.79-2.74,15.07.56l1.41,3.19-1.32-.22,1.08,7.69,1.02-1.66c.25,1.63.03,3.19-.62,4.75-3.04,7.26-2.93,8.68-10.1,13.23-1.43.91-3.35.58-4.85.8,1.07.23,2.06-.07,2.54,1.19l-12.86,3.34c-2.45.64-5.41,1.67-7.44,3.02-1.97,1.33-3.36,3.25-5.62,4.27-3.84,1.74-7.59,3.35-11.59,4.77-1.17.42-2.7.09-3.44-.56l-3.19,2.04.17,2.98c0,.11,0,.65-.09.69l-.67.26,1.08,5.3c-1.43.16-2.09.47-3.19,1.37l-1.71-5.94-.87.99-.86-4.43,1.35.15-1.03-3.18.05-1.69-.92,1.27-.53-2.76c.71-.68.93-1.72.58-2.41l-7.97,1.93,4.45-.2,1.06-.12c.21-.02.5.41.62.77l-6.24,1.86c-1.91.57-1.81,4.69-4.09,8.1l-2.96-.7.61-2.6c-1.19.87-1.14,1.86-1.12,3.07l-.78-.32c-.66-.27.97-2.42-1-3.74l6.44-15.49.68.75c.11.12.55-.07.51-.23l-.71-2.43c-1.61,3.12-3.68,6.5-7.09,8.04l-6.54,2.96-.11,7.9-2.08,4.53ZM77.73,24.53c3.52.05,7.63-5.82,9.38-9.34,1.33-2.65,1.67-5.36,1.36-8.39-1.78-.97-3.89-1.26-5.75-.41-1.39,1.59-2.88,2.73-4.82,3.59-1.93,2.99-3.46,6.29-3.92,9.96-.23,1.8,1.81,4.56,3.75,4.59ZM52.57,25.08c1.39-.58,2.71-1.73,2.5-3.45-.29.45-.7,1.38-1.05,1.62-.3.21-.86.12-1.92.16l1.82-2.04c-2.39-1.28-5.68-1.99-8.17-.59-1.6.9-1.4,3.61-1.08,4.81,1.51-.11,2.6-.08,3.85.03l4.75-1.9-.7,1.35ZM57.95,31.52l.43-4.62-.77-1.1.19-2.45c-1.66,2.24-2.75,3.13-4.76,4.93l4.46-1.41-2.2,2.56,2.65,2.09ZM7.88,34.6c4.03-1.66,6.43-3.7,8.62-6.71-3.07.33-6.68.25-8.27,2.01l-.34,4.7ZM28.93,35.85c.08-1.79-.76-3.9-1.41-5.88l-2.88,7.52c1.61.21,4,.02,4.29-1.64ZM15.37,31.47l-8.13,4.68c3.19-.18,5.97-2.2,8.13-4.68ZM55.54,34.48c-1.74-2.81-8.09-1.7-12.5-1.61l-1.11,6.92c4.25.04,9.68-3.1,13.61-5.31Z"/>
  </g>
</svg>