<?xml version="1.0" encoding="UTF-8"?>
<svg id="Layer_2" data-name="Layer 2" xmlns="http://www.w3.org/2000/svg" viewBox="0 0 94.28 22.79">
  <defs>
    <style>
      .cls-1 {
        fill: #fff;
      }
    </style>
  </defs>
  <g id="Layer_1-2" data-name="Layer 1">
    <g>
      <circle class="cls-1" cx="85.82" cy="14.32" r="8.47"/>
      <path class="cls-1" d="M32.03,22.36h-4.39s-1.55-2.33-1.55-2.33l-1.61-2.66-1.52-2.48c-.16-.1-.53.19-.66.31l-.85.82c-.43.41-.85.71-.85,1.35l.02,2.67-.02,1.55v.51c.02.12-.33.27-.45.27h-3.05c-.18,0-.42-.4-.42-.57V1.58c0-.59.07-1.07.23-1.58l3.49.02c.1.13.27.49.27.65l.02,12.01,3.22-3.24,3.02-3.09,3.16-.04c.37,0,.67-.19,1.03.2l-2.65,2.69-1.77,1.74-1.11,1.01c.11.31.27.66.44.93l1.29,1.96,4.52,6.84c.12.18.17.32.23.7Z"/>
      <path class="cls-1" d="M8.86,22.73h-2.8c-.97,0-1.98-.38-2.86-.72-1.66-.63-2.79-2.02-3.11-3.73L0,17.79c-.02-.1.34-.19.45-.19h2.77c.32-.01.5.32.57.57.5,1.82,2.51,2.34,4.38,2.16,1.41-.07,2.5-.94,2.71-2.39-.11-1.35-1.48-1.95-2.88-2.3l-1.75-.43c-1.44-.35-2.92-.61-4.17-1.35C.41,12.88-.08,11.09.53,9.33s1.95-2.71,3.72-3.14c2.01-.49,3.93-.47,5.95,0,3.71.88,4.36,4.38,3.61,4.36l-.58-.02c-.78-.03-1.89.32-2.61-.24-.48-1.03-1.19-1.77-2.35-1.91s-2.5-.24-3.51.53c-.52.39-.6,1.15-.41,1.77.52,1.69,3.67,1.76,5.53,2.33l2.38.74c.58.18,1.2.74,1.62,1.15,1.02,1.02,1.03,2.83.64,4.18-.34,1.19-1.73,2.61-2.6,2.89l-1.59.5c-.4.13-.99.26-1.46.26Z"/>
      <path class="cls-1" d="M45.45,17.31V6.75c0-.23.3-.44.48-.44l3.38.04.02,9.66.12,1.2c.07.66.5,1.45,1.06,1.9,1.21.97,3.04.89,4.26-.09.3-.25.74-.87.79-1.22l.33-2.29.04-9.13,2.69-.08c.37-.01.91-.05,1.14.35l-.03,9.94c0,2.38-1.74,4.87-3.93,5.56-.62.2-1.28.59-1.96.59l-3.07-.02-.92-.36c-1.09-.43-1.92-.98-2.85-1.74-.74-.93-1.22-2.08-1.56-3.3Z"/>
      <path class="cls-1" d="M65.59,8.82v12.89c0,.33-.14.66-.53.66h-2.93c-.16,0-.41-.4-.41-.56V4.54c0-.43.06-1,.21-1.37l.42-1.09c.33-.85,2.33-2.03,3.24-2.03l3.43-.02.04,2.38c0,.15-.22.45-.35.44l-.63-.06c-.39-.04-1.08.06-1.51.13-1.21.89-1.25,3.38-.56,3.39l2.8.05.02,2.31-1.16.12-2.08.03Z"/>
      <path class="cls-1" d="M33.87,22.35c-.27-.23-.28-.81-.29-1.15v-.81s-.02-13.4-.02-13.4c0-.2.21-.66.42-.66l3.06-.02c.1.09.27.41.27.54v3c.38-.28.54-.58.72-.99.94-2.14,3.49-3.56,5.72-2.86l.02,2.79c0,.15-.11.45-.21.54-.46.41-2.55-.53-4.61,1.39-.4.37-.81,1.01-.96,1.56l-.44,1.68v7.74c.02.17-.21.65-.43.65h-3.26Z"/>
    </g>
  </g>
</svg>