<?xml version="1.0" encoding="UTF-8"?>
<svg id="Layer_2" data-name="Layer 2" xmlns="http://www.w3.org/2000/svg" viewBox="0 0 94.51 45.54">
  <defs>
    <style>
      .cls-1 {
        fill: #fff;
      }
    </style>
  </defs>
  <g id="Layer_1-2" data-name="Layer 1">
    <g>
      <polygon class="cls-1" points="28.82 12.73 28.94 17.65 19.57 17.64 19.58 30.74 13.8 30.68 13.8 1.06 29.51 1.03 29.54 6.01 19.59 5.99 19.53 12.71 28.82 12.73"/>
      <path class="cls-1" d="M.81,32.4l4.96-1.57-5.76-2.25,5.79-2.14-4.88-1.65c-.2-.07-.34-.85-.43-1.57l8.77,3.11c-2.28,1.22-3.51,1.55-5.65,2.2l5.74,2.36-8.71,3.02c-.12.25-.1-1.42.18-1.51Z"/>
      <path class="cls-1" d="M8.41,20.52v1.35s-7.83-.02-7.83-.02c-.07-.24-.3-1.24-.1-1.25l1.41-.1,1.54-.1c.32-.02.27-1.08.24-1.41l-.16-1.49c-.04-.37-1.2-.24-1.59-.27l-1.28-.11c-.31-.03-.03-.86.26-1.2l7.5.19.04.88-3.55.37-.06,3.08,3.57.08Z"/>
      <path class="cls-1" d="M7.25,2.26l.08-1.18c.02-.3,1.2.22,1.19.52l-.06,3.37H.45s.04-3.71.04-3.71l1.16-.23c.21-.04.16.79.19,1l.21,1.6c.04.32,1.42.22,1.46-.11l.15-1.53c.02-.17.06-.85.23-.85l.93-.03c.23,0,.13.44.04.79l.16,1.41c.04.32,1.09.49,1.4.4.41-.12.78-1,.81-1.45Z"/>
      <path class="cls-1" d="M7.26,9.35l-5.2.07-.25,1.31c-.06.3-1.26.4-1.27.1l-.1-4.4,1.19-.1c.3-.03.28.87.32,1.67l6.24.12c.19,0,.47,1.22.28,1.22h-1.19Z"/>
      <rect class="cls-1" x=".46" y="12.36" width="8.04" height="1.47"/>
      <g>
        <path class="cls-1" d="M56.8,44.86c-7.35,1.35-18.22,1.19-22.9-5.08,4.45.2,8.73.62,13.19,0,13.26-1.86,21.73-12.12,28.29-23.66l-9.5-14.98,6.86-.09,5.56,9.82c3.96-6.91,8.18-12.88,16.21-10.19-2.41,2.98-4.57,5.75-6.34,8.91l-4.83,8.62,7.97,12.46-6.61.16-4.26-6.82c-5.62,10.22-11.37,18.61-23.65,20.87Z"/>
        <path class="cls-1" d="M64.65,15.9c0,8.7-7.06,15.76-15.76,15.76s-15.76-7.06-15.76-15.76S40.19.14,48.89.14s15.76,7.06,15.76,15.76ZM59.05,15.89c0-5.61-4.55-10.16-10.16-10.16s-10.16,4.55-10.16,10.16,4.55,10.16,10.16,10.16,10.16-4.55,10.16-10.16Z"/>
      </g>
    </g>
  </g>
</svg>