<?xml version="1.0" encoding="UTF-8"?>
<svg id="Layer_2" data-name="Layer 2" xmlns="http://www.w3.org/2000/svg" viewBox="0 0 95.1 33.64">
  <defs>
    <style>
      .cls-1 {
        fill: #fff;
      }
    </style>
  </defs>
  <g id="Layer_1-2" data-name="Layer 1">
    <g>
      <polygon class="cls-1" points="95.1 33.58 86.67 33.62 72.2 13.25 72.17 33.57 63.76 33.64 63.77 7.22 67.54 .03 75.31 .05 86.54 15.84 86.56 .04 95.09 0 95.1 33.58"/>
      <polygon class="cls-1" points="31.24 33.64 0 33.62 0 25.45 16.23 8.42 .95 8.39 .93 .02 27.38 .01 31.22 7.41 14.17 25.21 31.26 25.23 31.24 33.64"/>
      <polygon class="cls-1" points="65.48 .08 53.19 23.68 53.2 33.58 41.74 33.62 41.79 23.69 29.45 .02 40.58 .02 47.48 14.39 54.41 .01 65.48 .08"/>
    </g>
  </g>
</svg>