<?xml version="1.0" encoding="UTF-8"?>
<svg id="Layer_2" data-name="Layer 2" xmlns="http://www.w3.org/2000/svg" viewBox="0 0 1209.04 230.36">
  <defs>
    <style>
      .cls-1 {
        fill: #fff;
      }
    </style>
  </defs>
  <g id="Layer_1-2" data-name="Layer 1">
    <g>
      <polygon class="cls-1" points="852.88 225.5 800 225.47 823.35 135.94 773.63 135.9 749.82 225.47 695.98 225.5 709.2 175.33 754.34 4.55 807.86 4.65 786.48 87.47 836.2 87.55 857.8 4.65 912.64 4.71 852.88 225.5"/>
      <path class="cls-1" d="M281.44,224.22c-20.42,6.68-41,7.85-61.03,3.01-22.05-5.33-37.04-21.75-39.44-44.35-1.62-15.31-.81-30.41,2.95-45.57l11.93-48.11c3.53-14.25,8.99-27.27,16.13-39.93,14.81-26.3,39.89-43.37,69.67-47.78,35.46-5.24,74.4,3.71,82.08,41.19,2.91,14.22,2.56,28.21-.4,42.57-4.11,19.88-8.82,38.94-14.81,58.31-11.05,35.73-29.71,68.43-67.08,80.66ZM292.49,146.67c7.69-21.59,12.96-43.43,17.84-65.91,3.27-15.06,2.02-32.35-12.78-34.96-23.91-4.22-39.93,18.89-46.86,40.89-6.32,20.09-11.11,39.99-15.04,60.73-1.46,7.69-1.88,15.75-.89,23.17,1.14,8.45,8.22,13.41,16.13,13.69,22.46.8,34.33-17.24,41.58-37.61Z"/>
      <path class="cls-1" d="M559,4.63l-39.94,152.14c-10.53,33.31-27.27,60.23-62.32,69.33-27.96,7.26-69.73,6.7-86.18-17.52-13.75-20.24-7.47-47.73-1.46-71.22L402.92,4.67l53.28-.07-37.72,145.68-2.17,17.83c-1.07,8.83,6.17,15.13,14.68,15.88,19.74,1.73,29.01-12.71,35.29-30.66L504.82,4.64h54.18Z"/>
      <path class="cls-1" d="M1132.07,224.85c-37.73,11.39-94.12,7.55-98.08-34.76-1.03-10.95-.2-21.96,2.27-32.61l49.72-4.18c-1.33,7.02-2.37,12.43-2.26,18.31.15,8.06,5.7,13.84,13.35,15.38,10,2.01,20.66-.35,27.37-7.8,6.45-7.16,10.1-17.43,6.59-27.33-1.15-3.24-4.99-6.95-8.09-8.47l-20.84-10.17c-9.69-4.73-19.17-9.57-26.77-17.35-8.14-8.33-13.04-18.81-13.63-30.79-1.11-22.41,6.52-44.88,22.07-61.09C1106.77.01,1150.07-5.48,1180.61,5.23c28.11,9.86,32.59,36.09,25.39,64.16l-50.16,4.04,1.32-17.47c.55-7.22-5.54-11.65-12.08-12.61-15.28-2.25-28.24,7.23-30.32,22.48-.92,6.74,1.02,13.86,7.6,17.06l18.03,8.79c9.24,4.5,18.26,8.58,26.81,14.14,14.24,9.26,21.82,24.25,20.99,41.43-.71,14.63-4.71,28.46-11.58,41.36-9.44,17.74-24.79,30.26-44.53,36.22Z"/>
      <polygon class="cls-1" points="1021.98 135.75 954.39 136.06 943.17 179.78 1019.16 179.79 1006.97 225.49 877.63 225.47 922.52 55.02 934.81 4.6 1063.84 4.6 1052.01 50.35 976.37 50.42 966.18 90.43 1034.39 90.09 1021.98 135.75"/>
      <path class="cls-1" d="M595.86,145.88c-3.25,17.05-3.58,36.23,13.1,38.2,11.28,1.33,20.61-3.82,27.36-12.8,5.87-9.31,9.68-18.94,12.94-30.76l49.96,7.58c-10.72,30.71-23.44,59.37-53.81,73.63-37.68,15.86-95.31,12.48-103.22-33.1-4.9-28.21,3.97-62.87,11.83-91.23,4.54-16.35,9.69-31.64,17.63-46.41,15.79-29.37,43.96-47.93,77.23-50.54,13.55-1.06,26.52-.39,39.38,4.33,26.97,9.89,34.21,34.91,30.33,62.49l-1.94,13.8-52.23,5.63c3.14-17.13,6.85-37.96-9.86-40.87-22.1-3.85-35.96,17.62-42.89,37.94s-11.76,40.86-15.82,62.1Z"/>
      <path class="cls-1" d="M189.47,61.23c-4.29,31.8-16.39,64.65-45.71,79.75-12.65,6.52-26.58,9.84-40.8,9.99l-30.16.31-18.95,74.18H0S56.3,4.68,56.3,4.68l80.61-.03c9.98,0,19.16,1.93,28.21,5.22,20.94,9.04,27.33,29.25,24.34,51.37ZM130.46,91.98c4.99-9.49,7.83-19.93,7.77-30.34-.04-7.23-5.57-13.44-12.98-13.57l-26.16-.44-15.1,59.84,20.03-.12c11.19-.07,20.89-4.79,26.45-15.36Z"/>
    </g>
  </g>
</svg>