<?xml version="1.0" encoding="UTF-8"?>
<svg id="Layer_2" data-name="Layer 2" xmlns="http://www.w3.org/2000/svg" viewBox="0 0 222.32 61.68">
  <defs>
    <style>
      .cls-1 {
        fill: #fff;
      }
    </style>
  </defs>
  <g id="Layer_1-2" data-name="Layer 1">
    <g>
      <path class="cls-1" d="M73.32,61.68h-1.5c-.88-.1-1.7-.34-2.46-.84-1.52-1.01-1.86-3.12-.64-4.49s3.68-1.67,5.51-1.2,3.13,1.94,2.78,3.82c-.15.79-.69,1.57-1.49,2.04-.67.39-1.43.58-2.19.67ZM74.12,59.78c.58-.33.85-.94.81-1.55-.09-1.48-2.1-2.03-3.56-1.52-.42.15-.83.43-1.05.81-.5.87-.11,1.92.79,2.34s2.07.45,3-.09Z"/>
      <g>
        <path class="cls-1" d="M17.92,39.97l-1.42,5.12-.81,2.97-6.21,1.13-9.49,1.96,1.85-6.76,1.02-3.56,1.38-5.26,1.66-6,1.13-4.14,1.91-7.01,2.72-9.98,1.89-6.96.13-.66h19.24c1.68-.02,3.21.11,4.85.4s3.23.92,4.48,2.08c.94.87,1.49,1.94,1.62,3.24.18,1.81-.1,3.56-.64,5.32l-1.74,5.72c-.47,1.54-.96,2.99-1.62,4.45-.82,1.8-2.07,3.26-3.65,4.44-.76.57-1.48,1.1-2.35,1.45l-2.06.84c-3.68,1.17-7.32,1.38-11.19,1.54l-2.71,9.64ZM29.04,18.25c.6-1.79,1.07-3.51,1.5-5.3.14-.59.26-1.14.25-1.74-.03-.82-.62-1.5-1.48-1.5h-3.34s-1.61,5.43-1.61,5.43l-1.81,6.37c1.61-.1,3.68-.05,4.93-.91.8-.55,1.24-1.42,1.55-2.35Z"/>
        <g>
          <g>
            <path class="cls-1" d="M113.26,33.94c1.01.44,2.1-.05,2.72-.85.25-.4.46-.77.59-1.23l1.73-5.99,12.09-.05-1.37,4.67c-.35,1.23-.73,2.36-1.24,3.54-2.18,4.65-5.63,7.19-10.61,8.31-1.95.44-3.87.58-5.86.6-1.58.02-3.06-.11-4.61-.39-2.43-.44-4.74-1.3-6.12-3.42s-1-5-.35-7.35l1.6-5.87,2.01-6.98,1.79-5.94.58-1.65c2.08-5.88,6.92-9.65,13-10.82,3.38-.65,7.34-.74,10.65.16,2.92.79,5.24,2.5,5.44,5.69.07,1.18-.09,2.3-.33,3.46l-.92,3.24-1.57,5.22-11.96.02.67-2.08,1.39-4.68c.37-1.23.52-2.69-.73-2.95-1.39-.29-2.54.84-2.96,2.18l-1.16,3.67-1.52,5.12-1.17,3.88-2,6.64c-.23.75-.48,1.43-.58,2.2-.08.63.17,1.39.8,1.66Z"/>
            <g>
              <path class="cls-1" d="M50.62,44.63h-3.3c-1.83-.09-3.6-.42-5.29-1.13-1.37-.58-2.51-1.55-3.21-2.86-1.08-2.01-1.02-4.08-.48-6.28l.69-2.79,2.68-9.2.65-1.98c.56-1.71,1.05-3.37,1.53-5.12.41-1.52.88-2.96,1.42-4.44.61-1.65,1.49-3.09,2.57-4.48,1.44-1.84,3.26-3.28,5.37-4.3C56.67.43,60.85-.12,64.61.03c2.65.11,5.92.68,7.93,2.42,1.2,1.04,2.04,2.43,2.19,4.03.15,1.68-.15,3.3-.65,4.92l-1.82,5.98-1.1,3.66-2.04,6.66-1.41,4.68-1.3,3.27c-.83,2.09-2.81,4.45-4.72,5.71-3.36,2.22-7.01,3.07-11.06,3.27ZM54.57,34.16c.56-.59.88-1.31,1.1-2.04l.56-1.8,1.65-5.95,1.95-6.69,1.66-5.73c.39-1.36.66-3.18-.75-3.35-1.61-.2-2.73,1.38-3.19,2.87l-1.31,4.23-1.69,5.64-3.19,10.68c-.19.64-.26,1.26-.14,1.91.21,1.17,2.38,1.27,3.35.24Z"/>
              <path class="cls-1" d="M103.84,12.84l-1.01,3.51-1.2,3.92-2.33,8.1-1.32,4.42c-.9,2.43-1.5,3.71-3.17,5.74-.44.54-.96.96-1.5,1.41-2.53,2.08-6.08,2.99-9.32,3.33-1.98.2-3.91.26-5.89.15-2.51-.13-5.41-.77-7.22-2.53-.5-.49-.93-1.12-1.18-1.78-.42-1.12-.55-2.32-.44-3.51.13-1.38.41-2.67.78-4l1.77-6.24,1.6-5.45c.62-1.81,1.01-3.61,1.55-5.46l3.92-13.6h12.44s-.94,3.13-.94,3.13l-1.9,6.38-2.06,6.93-.8,2.81-2.22,7.51-.96,3.27c-.2.67-.23,1.38-.04,2.04.2.7.8,1.05,1.54.95s1.47-.62,1.72-1.37l1.41-4.33,1.29-4.65,1.06-3.64,1.96-6.95,1.22-4.33,2.26-7.74h12.62s-1.78,5.99-1.78,5.99l-1.84,6.01Z"/>
            </g>
          </g>
          <g>
            <path class="cls-1" d="M206.27,43.85c-1.21.37-2.33.67-3.56.83-2.82.36-5.58.36-8.41.1-1.99-.18-3.85-.6-5.69-1.36-2.43-1-4.34-2.7-4.79-5.35-.14-1.27-.04-2.48.35-3.71l1.78-5.66h13.28s-1.38,4.36-1.38,4.36l-.18,1.01c-.01.65.31,1.18.93,1.41.96.36,2.04.25,2.93-.27.51-.3,1.01-.66,1.31-1.18.96-1.7.89-3.92-.73-5.16l-1.11-.85-5.37-3.74-2.11-1.64c-1.05-.82-1.87-1.84-2.51-3.02-1.07-1.97-1.15-4.05-.66-6.22.68-3.03,2.28-6.1,4.48-8.29,1.04-1.04,2.23-1.8,3.51-2.51,5.08-2.83,13.18-3.29,18.69-1.59,1.16.36,2.12.9,3.04,1.67,1.22,1.02,2.05,2.34,2.2,3.95.17,1.62.01,3.18-.5,4.74l-1.52,4.67h-13.13s-.14-.03-.13-.05l.03-.09.52-1.62.87-2.58c.42-1.24.41-2.53-.85-2.88-1.64-.45-3.3.69-4.06,2.11-.42.79-.57,1.68-.57,2.56,0,.64.26,1.17.68,1.63.73.81,1.54,1.49,2.42,2.14l2.18,1.63c1.61,1.05,3.16,2.08,4.65,3.29,1.88,1.53,3.35,3.16,3.79,5.61.36,2.01.18,4.01-.39,5.96-.24.81-.47,1.57-.89,2.3l-1.49,2.59-1.42,1.62c-.45.51-.94.88-1.5,1.27-1.45,1-2.94,1.81-4.67,2.33Z"/>
            <g>
              <polygon class="cls-1" points="155.47 42.5 148.86 42.35 143.78 42.33 144.27 40.67 145.72 35.56 147.29 30.15 148.5 25.76 144.18 25.78 142.15 32.77 140.77 37.47 139.44 42.02 127.68 42.03 128.62 38.66 130.37 32.19 131.55 28.04 132.61 24.19 133.81 19.85 135.7 13.11 138.09 4.52 139.11 .85 151.6 .85 149.5 7.9 148.55 10.9 146.97 16.28 151.06 16.28 152.15 12.35 153.39 7.98 154.99 2.27 155.35 .85 168 .85 167.36 2.97 165.14 10.21 163.35 16.08 162.49 18.96 160.62 25.18 158.47 32.36 156.78 37.85 156.11 40.15 155.47 42.5"/>
              <path class="cls-1" d="M182.68,37.99l-1.65,5.34-5.41-.2-4.3-.15-7.67-.28-5.7-.13,1.15-4,2.55-8.91,1.31-4.42,1.05-3.67.64-2.21,1.48-5.16,1.96-6.79.86-2.89,1.05-3.67h23.49s-2.07,5.48-2.07,5.48l-1.54,3.84h-9.54s-.9-.06-.9-.06l-2.18,7.35h10.52s-1.53,5.02-1.53,5.02l-1.18,3.96-10.18.02-1.59,5.54-.37,1.37-.04.18s.13,0,.19,0l11.04.03-1.41,4.41Z"/>
            </g>
          </g>
        </g>
      </g>
      <path class="cls-1" d="M35.37,50.45l-8.71.61-4.01.29c-.83.06-1.59.26-2.46.16l2.84-.55,8.69-1.58,4.55-.66,9.55-1.08,5.19-.56c3.56-.38,7.06-.69,10.64-.91l5.94-.37,7.89-.43,10.79-.45,8.92-.2,8.57-.14,4.23-.03h16.38s15.42.19,15.42.19l26.68.7,7.68.31h.16s11.83.6,11.83.6l10.97.71h.5s.23,0,.23,0c0-.03,0,.03-.03.09l-5.54,1.26-4.04.94-6.1,1.44-3.96.95c-.57.09-1.16-.15-1.76-.19l-17.19-1.15-12.24-.58-10.23-.44-6.93-.22-12.85-.26-5.27-.07-6.92-.07h-10.44s-14.38.15-14.38.15l-19.28.45-4.78.19-6.72.25-13.82.62Z"/>
      <path class="cls-1" d="M127.08,55.11l-2.63,6.44h-2.12s-1.73-4.09-1.73-4.09l-1.57,4.07c-.69.08-1.4.07-2.09,0l-1.43-3.37-1.26-3.03h2.24s1.57,4.11,1.57,4.11l1.62-4.11h1.96s1.67,4.19,1.67,4.19l1.59-4.19h2.19Z"/>
      <polygon class="cls-1" points="64.95 55.11 64.01 57.37 62.34 61.55 60.24 61.55 58.56 57.46 56.95 61.55 54.89 61.56 54.14 59.74 52.24 55.12 54.49 55.11 55.19 57.1 56 59.24 57.62 55.12 59.56 55.11 61.19 59.28 62.73 55.11 64.95 55.11"/>
      <path class="cls-1" d="M145.45,58.33c0,2.24-2.01,3.23-4.07,3.23h-4.23s0-6.45,0-6.45h4.09c.93,0,1.81.18,2.62.6,1.02.52,1.58,1.49,1.58,2.62ZM142.88,59.44c.57-.61.59-1.52.09-2.14-.47-.37-1.04-.59-1.66-.59h-2.1s0,3.3,0,3.3h1.96c.62,0,1.21-.15,1.71-.56Z"/>
      <path class="cls-1" d="M111.53,58.3c.03,2.24-2.07,3.26-4.17,3.26h-4.07s0-6.44,0-6.44h4c.94,0,1.84.21,2.64.63,1,.55,1.59,1.47,1.61,2.55ZM108.91,59.49c.61-.6.65-1.55.09-2.18-.47-.39-1.06-.61-1.68-.62l-2.01-.02v3.33s2.06-.01,2.06-.01c.56,0,1.08-.16,1.55-.51Z"/>
      <path class="cls-1" d="M88.71,61.53l-2.43.02-1.58-1.91h-1.58s0,1.91,0,1.91l-2.11-.02v-6.42s4.29,0,4.29,0c.72,0,1.4.13,2.02.44.97.52,1.36,1.57.95,2.6-.24.6-.75.98-1.44,1.25l1.88,2.14ZM86.11,57.85c.24-.17.23-.59.11-.8-.09-.18-.4-.36-.67-.36l-2.45-.02v1.47s1.92,0,1.92,0c.37,0,.76-.05,1.08-.29Z"/>
      <polygon class="cls-1" points="155.05 59.03 151.19 59.03 151.19 60.04 155.78 60.04 155.78 61.57 150.59 61.58 149.19 61.52 149.19 55.11 155.7 55.11 155.71 56.68 151.2 56.68 151.2 57.61 155.03 57.61 155.05 59.03"/>
      <polygon class="cls-1" points="99.48 59.98 99.49 61.55 98.92 61.58 92.96 61.57 92.96 55.11 95.06 55.11 95.05 59.98 99.48 59.98"/>
      <rect class="cls-1" x="130.61" y="55.1" width="2.07" height="6.47"/>
    </g>
  </g>
</svg>