<?xml version="1.0" encoding="UTF-8"?>
<svg id="Layer_2" data-name="Layer 2" xmlns="http://www.w3.org/2000/svg" viewBox="0 0 1069.98 296.57">
  <g id="Layer_1-2" data-name="Layer 1">
    <g>
      <path d="M413.79,284.15c-96.28.47-191.69,3.65-286.46,9.71l-13.38.86c33.18-6.94,66.08-10.85,100.28-14.35,48.72-4.99,96.87-8.15,145.94-10.24,105.67-4.51,211.12-5.21,317.06-3.4,74.79,1.28,149.01,3.55,223.18,8.38l29.28,2.73-67.72,18.74c-149.03-9.34-297.77-13.15-448.16-12.42Z"/>
      <g>
        <path d="M806.96,68.72l16.02-64.91,109.64-.03-16.39,54.21-47.38.03-12.31,44.73,44.11.96-12.82,51.74-43.82-.49-10.77,41.89,52.52.16,9.55-29.71,58.72,1.37c.42,11.17-7.84,27.66-3.91,32.82s12.14,3.1,16.03-1.33c5.24-5.98,8.27-14.82,6.31-22.84-1.57-6.44-6.73-11.29-11.4-15.68l-25.77-24.24c-10-9.4-17.5-21.08-20.24-34.57-4.98-24.47,8.25-57.38,25.42-76.42C959.37,5.44,986.16-.38,1014.25.19c12.04.24,23.73,2.21,34.08,8.14,21.57,12.35,25.25,35.73,18.77,59.03l-10.42,28.15-59.42-1.37,7.25-27.81c.82-3.13.69-7,.2-10.3-5.1-3.32-11.54-2.27-15.39,2.58-4.69,5.91-8.31,13.87-8.16,21.74.14,7.09,5,12.75,9.75,17.4l29.8,29.13c9.46,9.25,16.13,21.04,18.58,34.15,4.41,23.6-10.36,57.79-26.54,75.97-11.96,13.44-28.46,21.75-46.39,24.35-24.95,3.62-58.29,2.37-74.65-17.4-7.33-10.13-8.06-22.02-7.82-34.85l-13.96,46.84-108.85-2.77,45.88-184.44Z"/>
        <path d="M206.82,79c-10.56,37.88-17.62,73.49-58.14,89.73-16.67,6.68-33.36,10.02-52.06,11.3l-8.82,41.2-9.88,49.52L0,285.49C19.55,190.17,41.54,97.29,65.22,3.38l81.96-.03c11.77,0,22.66.67,34.13,1.87,9.05,2.13,17.75,5.16,24.06,12.04,12.99,14.18,6.84,42.37,1.45,61.74ZM147.12,69.05c1.29-4.66,1.96-10.71.99-15.35-.75-1.5-5.05-2.73-6.71-2.67l-15.17.55-18.13,76.88c12.39.62,24.34-6.33,27.54-17.91l11.48-41.5Z"/>
        <path d="M323.83,198.12c-11.08,41.85-47.34,65.55-90.48,65.82-24.52.15-47.66-8.46-51.22-33.37-1.53-10.69-1.11-21.21,1.64-31.87l33.17-128.56c2.92-11.31,6.85-21.6,12.66-31.42C246.16,10.74,277.24-.38,309.22.24c10.53.2,20.67,1.63,29.85,6.35,13.22,6.8,21.07,19.51,21.57,34.3.42,12.31-2.07,23.89-5.16,35.89l-15.14,58.92-16.52,62.43ZM262.59,198.09c4.62-12.37,7.8-24.04,11.03-36.53l18.04-69.85,7.33-32.33c.42-1.87-.52-6.56-2.41-7.45-5.91-2.8-13.03,1.32-15.15,7.85-6.5,20.05-11.8,39.57-16.92,60.16l-18.75,75.32c-.88,3.53-.38,9.43,2.74,10.74,5.6,2.36,11.93-2.1,14.09-7.89Z"/>
        <polygon points="749.8 253.01 690.08 252.14 714.58 154.33 694.84 156.17 671.6 251.93 612.49 251.37 629.4 182.43 647.65 108.78 673.61 3.96 733.21 3.95 719.68 55.94 707.85 100.26 727.32 99.28 751.47 3.97 811.6 3.96 804.78 31.15 761.29 206.45 749.8 253.01"/>
        <path d="M506.27,65.04l-18.51,76.05-11.92,46.9c-6.78,26.67-20.9,52.34-47.12,62.92-21.43,8.64-45.57,10.61-67.81,5.13-32.09-7.92-31.1-40.34-23.23-69.31l28.28-114.63,16.6-66.45,60.82-.2-35.05,139.17-12.3,50.86c-.57,2.36,1.33,6.86,3.6,7.48,5.51,1.49,12.49-2.43,14.03-8.34l14.2-54.85L461.33,5.53l59.99-.39-15.05,59.9Z"/>
        <path d="M543.76,196.02c-.3,1.45,1.06,4.9,2.18,5.48,1.3.68,3.97.94,6.21,1.03,4.88-2.46,7.95-6.54,9.44-12.08l10.58-39.29,57.49-3.86-9.98,38.66c-4.55,17.61-12.55,33.64-24.76,46.98-12.59,12.75-28.05,19.71-45.74,22.27-29.14,4.23-61.63-3.66-66.24-34.3-2.01-13.35.16-26.39,3.45-39.49l12.2-48.65,17.54-68.39c8.84-34.47,37.48-58.79,72.77-63.29,12.87-1.64,25.29-1.74,37.61,1.87,17.3,5.06,28.02,19.31,27.57,37.52-.26,10.42-1.65,20.81-4.97,30.88l-10.71,32.43-26.14,1.49-31.56,1.75,9.69-31.62,5.56-20.05c-.57-2.05-1.18-4.15-2.01-5.18-2.93-3.62-12.63-.1-15.13,7.77l-6.33,19.85-23.36,92.55-5.34,25.66Z"/>
      </g>
    </g>
  </g>
</svg>