<?xml version="1.0" encoding="UTF-8"?>
<svg xmlns="http://www.w3.org/2000/svg" viewBox="0 0 48.66 72.34">
  <g fill="#CCFF00">
    <path d="M15.64,69.22l-1.46-2.15-2.53.9-1.36-2.16-2.43.99-1.43-2.05-2.33.87-1.3-1.92-1.84.73c-.21.08-.68-.08-.8-.24s-.21-.63-.13-.84c.45-1.2.77-2.67,1.39-3.75l4.46-7.66,2.05-6.76,7.63-25.14c.69-2.28,1.44-4.35,1.94-6.66s.39-4.65.68-6.94l2.33.81,25.96,7.32-4.02,6.26-4,12.83-8.16,25.21c-.51,3.01-.95,5.81-1.2,8.88l-1.14,4.22c-.27.23-.94.42-1.29.36l-1.15-1.74-2.3.94-1.33-2.05-2.41.91-1.35-2.09-2.49.93ZM41.75,17.67l.81-.99-22.66-6.19.02,1.17,21.83,6.01Z" />
    <path d="M37.75,6.79l2.55-.97,1.47,2.08,2.65-1.05,1.35,2.04,2.13-.76c.22-.08.72.32.75.54s-.01.67-.09.92l-1.22,3.94-16.8-4.7-12.34-3.43.86-4.51c.05-.28.28-.65.46-.8s.87-.13.99.06l1.17,1.78,2.44-1.01,1.31,2.1,2.6-.83,1.55,2.19,2.6-1.05,1.48,2.17,2.56-.94,1.53,2.22Z" />
  </g>
</svg>
