<?xml version="1.0" encoding="UTF-8"?>
<svg id="Layer_2" data-name="Layer 2" xmlns="http://www.w3.org/2000/svg" viewBox="0 0 92.82 30.64">
  <defs>
    <style>
      .cls-1 {
        fill: #fff;
      }
    </style>
  </defs>
  <g id="Layer_1-2" data-name="Layer 1">
    <g>
      <path class="cls-1" d="M83.81,30.13h-8.23s.11-17.91.11-17.91l-6.78,17.94-6.7.02-6.86-18.28.14,18.24-8.21.02V0s10.3.02,10.3.02l4.57,10.65c1.32,3.08,2.34,6.14,3.32,9.56,1.03-3.35,2.17-6.68,3.6-10.01L73.48.04l10.32-.03.02,30.13Z"/>
      <path class="cls-1" d="M37.77.06l8.2-.04-.07,19.32c-.02,4.96-3.35,9.07-7.9,10.56-3.05.99-6.14.99-9.2.04-4.78-1.47-8.09-5.79-8.11-10.91l-.05-18.99,8.21-.02v18.27c-.01,2.44,1.48,4.08,3.89,4.36,2.82.32,5.04-1.5,5.04-4.35l-.03-18.24Z"/>
      <polygon class="cls-1" points="18.19 12.19 18.14 20.08 8.18 20.07 8.19 30.16 0 30.15 0 .01 19.37 .02 19.37 7.88 8.19 7.86 8.18 12.22 18.19 12.19"/>
      <rect class="cls-1" x="85.02" y="8.53" width="7.79" height="21.62"/>
      <rect class="cls-1" x="84.97" width="7.85" height="7.54"/>
    </g>
  </g>
</svg>