<?xml version="1.0" encoding="UTF-8"?>
<svg id="Layer_2" data-name="Layer 2" xmlns="http://www.w3.org/2000/svg" viewBox="0 0 94.18 26.22">
  <defs>
    <style>
      .cls-1 {
        fill: #fff;
      }
    </style>
  </defs>
  <g id="Layer_1-2" data-name="Layer 1">
    <g>
      <path class="cls-1" d="M93.4,11.96c-.77,1.87-2.36,3.25-4.25,4-.32.13-.8.31-1.15.36l-1.76.27-6.88.04c-.14,0-.41.2-.46.32v9.14s-4.78,0-4.78,0V.83c-.04-.13-.12-.32-.06-.36l.33-.2h11.19s1.78.16,1.78.16l1.25.37c2.46.72,4.44,2.55,5.12,4.95l.24.84c.37,1.31.22,3.47-.27,4.65l-.3.73ZM89.03,9.41c.08-.44.19-.93.1-1.33l-.27-1.2c-.44-1.09-1.42-1.8-2.48-2.19l-1.35-.31h-6.13s0,7.88,0,7.88c.03.09.1.36.18.34l.29-.09h4.42c2.16.3,4.86-.88,5.24-3.1Z"/>
      <path class="cls-1" d="M56.84,26.13l-1.53-.15-1.55-.29-1.36-.3-2.75-.8c-3.12-1.14-6.84-2.94-8.75-5.72-.47-.69-.57-1.43-.46-2.24.15-1.07,1.4-2.05,2.38-2.42,1.2-.46,2.42-.71,3.66-1,2.64-.62,4.69-2.39,5.53-4.94l.41-1.24.29-1.07c.41-1.51.86-3.54,1.87-4.49l.69-.65c1.35-.59,2.83-1,4.3-.73l1.97.37c3.21.82,5.79,2.79,7.74,5.39.76,1.01,1.41,1.98,1.83,3.21l.35,1.37.28,2.11c.04.29.06.78.01,1.06l-.29,1.75-.33,1.01-.32.89-1.74,3.07-1.09,1.35c-.71.88-1.45,1.78-2.37,2.4l-1.15.77c-.88.59-2.94,1.32-3.94,1.32l-3.69-.02ZM50.38,23.16l1.36.38c3.27.91,8.07.18,10.84-1.95l1.01-.78c2.45-2.21,4.08-4.68,3.58-8.08-.36-2.45-1.75-4.49-3.49-6.16l-.81-.67c-1-.68-2.03-1.35-3.23-1.53-2.38-.35-3.39,1.92-4.59,3.67l-.72,1.06-.51.72c-.99,1.39-2.89,3.01-4.45,3.55l-2.5.86c-1.05.36-2,.99-2.58,2.01-.92,1.63.5,3.85,2.12,4.88l1.59,1.02,1.5.71.87.29Z"/>
      <path class="cls-1" d="M36.38,22.45l-.36,1c-.51,1.4-1.79,2.39-3.24,2.64-1.11.19-2.15.13-3.24.04-2.36-.19-4.53-1.34-6.41-2.79-.76-.58-1.41-1.32-2.07-2.04-.93-1.01-1.67-2.07-2.23-3.36l-.36-1.04-.36-1.52c-.11-1.25-.05-2.41-.05-3.68,0-.34.17-.8.28-1.12l.3-.93.34-.78c.82-1.91,2.01-3.56,3.41-5.07l.98-.93c1.02-.97,2.22-1.76,3.57-2.21l1.62-.4c1.56-.38,3.06-.31,4.66-.01l1.41.14,2.05.42c3.12.64,6.02,1.81,8.71,3.52l1.99,1.48.57.62c.92,1.01,1.69,2.32,1.17,3.62-.43,1.08-1.49,1.79-2.57,2.16l-1.15.4-1.85.39-1.03.28c-2.6.7-4.52,3.07-5.2,5.66l-.26.98-.36,1.43-.32,1.07ZM34.01,19.21c1.77-2.79,3.38-5.23,6.56-6.36l2.72-.97c1.13-.52,2.2-1.43,2.36-2.74.29-2.26-2.88-4.68-4.88-5.41l-1.8-.65-1.04-.28-1.83-.37c-.93-.19-2.04-.18-2.95.01l-1.66.35c-4.1.87-8.3,4.39-9.04,8.62-.1.58-.17,1.28-.03,1.86l.41,1.72.33.86.67,1.25c.31.57.76,1.06,1.19,1.58,1.12,1.33,2.52,2.48,4.21,3.02l1.22.25c1.73-.02,2.65-1.32,3.56-2.75Z"/>
      <path class="cls-1" d="M18.1,21.87c.18,0,.38.32.4.45l-.02,3.78H0S0,.27,0,.27h4.68s0,21.47,0,21.47c.4.23.78.13,1.23.13h12.19Z"/>
    </g>
  </g>
</svg>