<?xml version="1.0" encoding="UTF-8"?>
<svg id="Layer_2" data-name="Layer 2" xmlns="http://www.w3.org/2000/svg" viewBox="0 0 92.81 23.67">
  <defs>
    <style>
      .cls-1 {
        fill: #fff;
      }
    </style>
  </defs>
  <g id="Layer_1-2" data-name="Layer 1">
    <g>
      <path class="cls-1" d="M92.81,10.27v2.97c-.59,4.98-4.25,9.04-8.99,10.12-5.13,1.17-10.22-1.07-12.85-5.53-1.22-2.07-1.72-4.28-1.59-6.68C69.68,5.01,74.66.2,80.72,0s11.3,4.2,12.09,10.26ZM88.56,11.84c0-4.12-3.34-7.45-7.45-7.45s-7.45,3.34-7.45,7.45,3.34,7.45,7.45,7.45,7.45-3.34,7.45-7.45Z"/>
      <g>
        <polygon class="cls-1" points="0 .67 0 .41 4.4 .47 8.86 9.04 13.33 .46 17.72 .46 8.86 17.53 .45 1.31 0 .67"/>
        <polygon class="cls-1" points="39.97 14 31.18 14.01 31.19 18.7 46.92 18.7 44.65 23.06 26.79 23.06 26.79 .46 46.94 .46 44.63 4.93 31.18 4.93 31.18 9.57 42.17 9.59 39.97 14"/>
        <polygon class="cls-1" points="68.86 18.7 66.65 23.06 50.69 23.06 50.69 .48 55.08 .46 55.08 18.69 68.86 18.7"/>
        <polygon class="cls-1" points="11.94 23.6 9.79 19.37 19.64 .45 23.94 .48 11.94 23.6"/>
      </g>
    </g>
  </g>
</svg>